<svg xmlns="http://www.w3.org/2000/svg" width="200" height="200" viewBox="0 0 200 200" fill="none">
  <!-- Circular background -->
  <circle cx="100" cy="100" r="90" fill="#4F46E5" opacity="0.1"/>
  
  <!-- Brain outline -->
  <path d="M100 40C78.5 40 64 58.5 64 80C64 88.2 66.8 95.8 71.6 101.9C73.2 104 74 106.6 74 109.3V126C74 132.6 79.4 138 86 138H114C120.6 138 126 132.6 126 126V109.3C126 106.6 126.8 104 128.4 101.9C133.2 95.8 136 88.2 136 80C136 58.5 121.5 40 100 40Z" stroke="#4F46E5" stroke-width="6" stroke-linecap="round" stroke-linejoin="round"/>
  
  <!-- Brain connections -->
  <path d="M84 80C84 76.7 86.7 74 90 74H110C113.3 74 116 76.7 116 80" stroke="#4F46E5" stroke-width="6" stroke-linecap="round" stroke-linejoin="round"/>
  
  <!-- Nodes representing AI/knowledge -->
  <circle cx="90" cy="62" r="6" fill="#4F46E5"/>
  <circle cx="110" cy="62" r="6" fill="#4F46E5"/>
  <circle cx="78" cy="90" r="6" fill="#4F46E5"/>
  <circle cx="122" cy="90" r="6" fill="#4F46E5"/>
  
  <!-- Book/education representation at bottom -->
  <rect x="86" y="138" width="28" height="8" rx="2" fill="#4F46E5"/>
  <path d="M86 146H114V156C114 158.2 112.2 160 110 160H90C87.8 160 86 158.2 86 156V146Z" fill="#4F46E5"/>
  
  <!-- Data connections -->
  <line x1="90" y1="68" x2="90" y2="74" stroke="#4F46E5" stroke-width="3" stroke-linecap="round"/>
  <line x1="110" y1="68" x2="110" y2="74" stroke="#4F46E5" stroke-width="3" stroke-linecap="round"/>
  <line x1="84" y1="90" x2="78" y2="90" stroke="#4F46E5" stroke-width="3" stroke-linecap="round"/>
  <line x1="116" y1="90" x2="122" y2="90" stroke="#4F46E5" stroke-width="3" stroke-linecap="round"/>
</svg> 